Coordinates
version=1
nRows=11
nColumns=36
inDegrees=yes

Units are S.I. units (second, meters, Newtons, ...)
If the header above contains a line with 'inDegrees', this indicates whether rotational values are in degrees (yes) or radians (no).

endheader
time	pelvis_tilt	pelvis_list	pelvis_rotation	pelvis_tx	pelvis_ty	pelvis_tz	hip_flexion_r	hip_adduction_r	hip_rotation_r	knee_angle_r	knee_angle_r_beta	ankle_angle_r	subtalar_angle_r	mtp_angle_r	hip_flexion_l	hip_adduction_l	hip_rotation_l	knee_angle_l	knee_angle_l_beta	ankle_angle_l	subtalar_angle_l	mtp_angle_l	lumbar_extension	lumbar_bending	lumbar_rotation	arm_flex_r	arm_add_r	arm_rot_r	elbow_flex_r	pro_sup_r	arm_flex_l	arm_add_l	arm_rot_l	elbow_flex_l	pro_sup_l
      8.93333330	     -5.32083467	      1.07424680	     -0.97822049	      0.49982702	      0.88815877	     -0.14652516	     10.27787629	      0.05779786	     -5.21593876	     16.98550474	      0.29645298	     10.92172167	    -18.28888373	     -7.49999987	      4.22048517	      1.71228073	      2.32802429	      6.33497600	      0.11056619	     11.96963511	     -4.70844597	     -7.49999987	     -5.41646993	      1.17849863	      1.03835054	     49.81527749	     13.87433004	     66.60270915	    114.47662301	     93.47927418	     35.35726590	     18.53640531	     64.32531863	    120.54600815	     82.99844760
      8.95000000	     -5.94765254	      1.19008951	     -1.15792690	      0.49193723	      0.88630669	     -0.14722733	     11.23719332	     -0.03312618	     -4.93010413	     17.32837443	      0.30243719	     11.10197569	    -18.26060051	     -7.49999987	      5.21480176	      1.74791180	      1.89102549	      6.70261710	      0.11698274	     12.24873634	     -4.69725021	     -7.49999987	     -5.24114928	      1.27653447	      0.51255270	     50.16338635	     13.71062980	     66.73540414	    114.74040727	     93.93814366	     35.89507196	     18.71803524	     64.58922581	    120.50474263	     83.45240993
      8.96666670	     -6.24073646	      1.32095382	     -1.25372431	      0.49232479	      0.88662701	     -0.14684233	     11.70484118	     -0.14287868	     -4.62288547	     17.48268880	      0.30513048	     11.09618355	    -18.29914328	     -7.49999987	      5.81038796	      1.82351424	      1.71744048	      7.00030331	      0.12217834	     12.33463709	     -4.69822865	     -7.49999987	     -5.36455887	      1.39333405	      0.02058770	     50.72555288	     13.56823737	     66.99714370	    115.09168957	     92.98599908	     36.54431675	     18.74827559	     64.79142768	    120.48075834	     82.72314973
      8.98333330	     -6.84450274	      1.47848503	     -1.39376812	      0.48843066	      0.88546003	     -0.14433934	     12.64040118	     -0.27455434	     -4.47220411	     17.77730630	      0.31027253	     11.30023468	    -17.94719757	     -7.49999987	      6.87406183	      1.88618237	      1.21943653	      7.50581239	      0.13100114	     12.55209186	     -4.56597374	     -7.49999987	     -5.05064214	      1.46775281	     -0.36735980	     51.09470334	     13.36917785	     67.42804292	    115.51172222	     91.69402712	     37.43018155	     18.78353832	     64.99592033	    120.51973186	     81.66297809
      9.00000000	     -7.38351265	      1.64790794	     -1.46555100	      0.48500532	      0.88254106	     -0.14178580	     13.47702922	     -0.31714468	     -4.10299116	     17.91164252	      0.31261714	     11.18125211	    -18.16335025	     -7.49999987	      7.94587046	      1.93897798	      0.91343408	      8.08937102	      0.14118616	     12.61776262	     -4.77953934	     -7.49999987	     -4.90305092	      1.49103046	     -0.59956613	     51.73638057	     13.29522037	     67.20803275	    115.58244423	     95.15728976	     38.68617122	     18.84242910	     64.77480895	    120.44418245	     84.72667395
      9.01666670	     -8.03948425	      1.80723813	     -1.44075832	      0.48093445	      0.88411544	     -0.13915197	     14.26222107	     -0.34491982	     -4.00972412	     17.68602082	      0.30867929	     11.23005188	    -17.82512725	     -7.49999987	      9.32093852	      1.96573227	      0.43784788	      8.82062152	      0.15394889	     12.58924601	     -4.88593132	     -7.49999987	     -4.71868293	      1.49047008	     -0.65496221	     51.92656573	     13.10613424	     67.10899170	    115.67704393	     93.80625065	     39.32966834	     18.72680301	     64.88877099	    120.68486183	     83.50448231
      9.03333330	     -8.19607969	      1.98399889	     -1.44987540	      0.48173243	      0.88237120	     -0.13364967	     14.32978646	     -0.28777885	     -3.81532274	     17.21506934	      0.30045964	     11.22374097	    -17.71261550	     -7.49999987	     10.16337980	      1.94363199	      0.02895395	      9.66644930	      0.16871137	     12.35765083	     -5.21004935	     -7.49999987	     -5.05545709	      1.28977104	     -0.48257012	     52.13031418	     13.15966830	     66.89934555	    115.56843228	     93.83639457	     39.57904029	     18.68341827	     65.06052898	    121.00643367	     83.55376575
      9.05000000	     -8.65465397	      1.93892726	     -1.30171932	      0.48546043	      0.88707596	     -0.13066774	     14.50007027	     -0.00955758	     -3.81909359	     16.61921216	      0.29005997	     10.90711095	    -17.59690840	     -7.49999987	     11.36665999	      1.68141404	     -0.17360942	     10.72431922	      0.18717468	     12.38880902	     -5.42671939	     -7.49999987	     -4.79314864	      1.53612531	     -0.36674061	     51.40431079	     13.20975790	     66.89429955	    115.41886224	     93.92816700	     39.35348235	     18.32034817	     65.64084152	    121.41674104	     83.67383159
      9.06666670	     -8.94375360	      1.94071126	     -1.28584842	      0.48203062	      0.88417691	     -0.12769357	     14.47099818	      0.27354982	     -3.78866766	     16.00924546	      0.27941404	     10.82533575	    -17.47053097	     -7.49999987	     12.45325756	      1.38698611	     -0.59442127	     11.93695850	      0.20833923	     12.42847770	     -5.66592778	     -7.49999987	     -4.54083652	      1.56732314	     -0.34947427	     50.80959655	     13.28550585	     66.69271270	    115.23526287	     94.07160259	     38.47413020	     18.41633112	     65.83108232	    121.37733079	     83.80784315
      9.08333330	     -9.15180144	      1.90357778	     -1.18779119	      0.48209412	      0.88600084	     -0.12256751	     14.25097601	      0.63140973	     -3.71183738	     15.20233151	      0.26533074	     10.67406440	    -17.26434975	     -7.49999987	     13.44510390	      1.02586236	     -0.94010210	     13.14362384	      0.22939951	     12.41129718	     -5.65609416	     -7.49999987	     -4.30980963	      1.58648654	     -0.29665712	     49.88061844	     13.29394819	     66.55500111	    114.90013623	     93.16774551	     37.14434321	     18.36256934	     66.18499740	    121.49669286	     82.96810723
      9.10000000	     -9.33177009	      1.78107335	     -1.01878266	      0.48719648	      0.88229407	     -0.11947414	     13.96156804	      1.04576114	     -3.80967662	     14.58614008	      0.25457617	     10.44323910	    -17.10594439	     -7.49999987	     14.25288597	      0.55124842	     -1.28713033	     14.32607109	      0.25003711	     12.54860028	     -5.32520889	     -7.49999987	     -3.95219358	      1.75565036	     -0.70093906	     48.67473551	     13.70067281	     66.60927038	    114.65651248	     95.22790597	     35.74519081	     18.33081314	     66.27818921	    121.64746172	     85.34163332
